<?xml version="1.0" encoding="UTF-8"?><svg id="Layer_1" xmlns="http://www.w3.org/2000/svg" viewBox="0 0 89.33 35.59"><defs><style>.cls-1{fill:#15162e;}</style></defs><path class="cls-1" d="M26.97,11.98c.96,.17,1.99,.42,2.72,1.09-.03,1.16-1.21-.36-1.68-.53-1.05,3.16-4.9,.77-6.99-.19,1.6,2.29,5.26,4.13,7.74,1.93,.33-.06,.58,.45,.91,.49,1.19-.57,1.35-1.71,1.31-1.8-.98-.97-2.78-1.9-4-1Z"/><path class="cls-1" d="M32.58,8.68c-1.29-.94-2.93-1.12-4.48-1.15-.59,0-.92-.44-1.19-.9-.3-.51-.6-1.04-1.11-1.37-.43-.28-.97-.2-1.46-.21-.22,0-.49,0-.7-.11-.28-.14-.29-.4-.41-.65-.09-.2-.19-.39-.33-.56-.29-.38-.71-.62-1.19-.71-1.68-.07-1.65-1.06-1.1-2.78l.07-.25c-1.23,.02-4.74,4.08-3.09,5.86-5.37,4.35-.24,13.22,.61,18.79,.44-5.92-3.27-15.25,2.22-18.23-1.25-.82-1.85-2.29-1.24-3.51,.51,1.92,2.32,2.23,2.83,2.27,.02,0,.23,.61,.27,.68,.1,.17,.21,.33,.37,.45,.26,.21,.58,.29,.91,.31,.33,.02,.67-.01,1,0,.42,.01,.85,.05,1.1,.42,.22,.32,.28,.71,.53,1.01,.34,.43,.83,.66,1.38,.73,.9,.11,1.82-.05,2.72,.17,.26,.06,.51,.16,.74,.29,.04,.02-.57,.89-.68,.93-.05,.02-.24-.05-.3-.07-.11-.02-.22-.04-.32-.06-.22-.03-.44-.06-.67-.07-.45-.02-.9,0-1.34,.08-.56,.1-1.11,.31-1.55,.66-.23,.18-.42,.39-.58,.62-.19,.28-.27,.58-.39,.89,.21-.1,.41-.22,.61-.33,1.47-.83,3.12-1.29,4.71-.5,1.05,.52,2.47-2.95,2.07-2.71Z"/><polygon class="cls-1" points="37.18 8.38 41.28 13.37 42.84 13.37 42.84 5.15 40.96 5.15 40.96 10.14 36.87 5.15 35.3 5.15 35.3 13.37 37.18 13.37 37.18 8.38"/><path class="cls-1" d="M47.08,13.46c2.01,0,3.46-1.35,3.46-3.25s-1.46-3.25-3.46-3.25-3.48,1.35-3.48,3.25,1.47,3.25,3.48,3.25Zm0-5c.92,0,1.61,.66,1.61,1.75s-.69,1.75-1.61,1.75-1.62-.66-1.62-1.75,.7-1.75,1.62-1.75Z"/><path class="cls-1" d="M62.19,10.24c0-1.16,.63-1.7,1.51-1.7,.81,0,1.28,.47,1.28,1.49v3.34h1.83v-3.62c0-1.93-1.13-2.8-2.62-2.8-.81,0-1.51,.26-2.01,.75v-3.05h-1.83V13.37h1.83v-3.12Z"/><path class="cls-1" d="M38.01,22.46c-.99,0-2.02-.35-2.71-.86l-.65,1.43c.73,.56,2.04,.95,3.35,.95,2.35,0,3.49-1.17,3.49-2.55,0-3.02-4.78-1.97-4.78-3.49,0-.52,.43-.94,1.56-.94,.73,0,1.51,.21,2.28,.65l.59-1.44c-.76-.48-1.82-.73-2.85-.73-2.34,0-3.46,1.16-3.46,2.56,0,3.05,4.78,2,4.78,3.54,0,.5-.46,.88-1.59,.88Z"/><path class="cls-1" d="M45.34,17.44c-2.01,0-3.48,1.35-3.48,3.25s1.47,3.25,3.48,3.25,3.46-1.35,3.46-3.25-1.46-3.25-3.46-3.25Zm0,5c-.92,0-1.62-.66-1.62-1.75s.7-1.75,1.62-1.75,1.61,.66,1.61,1.75-.69,1.75-1.61,1.75Z"/><path class="cls-1" d="M51.28,20.68c0-1.13,.58-1.66,1.39-1.66,.76,0,1.2,.47,1.2,1.49v3.34h1.83v-3.17c0-1.13,.58-1.66,1.4-1.66,.74,0,1.2,.47,1.2,1.49v3.34h1.83v-3.62c0-1.93-1.08-2.8-2.58-2.8-.95,0-1.77,.39-2.28,1.03-.45-.69-1.2-1.03-2.08-1.03-.81,0-1.51,.28-1.98,.82v-.73h-1.75v6.32h1.83v-3.17Z"/><path class="cls-1" d="M64.15,17.44c-1.93,0-3.37,1.36-3.37,3.25s1.42,3.25,3.6,3.25c1.14,0,2.02-.35,2.61-1.02l-.97-1.06c-.43,.41-.92,.61-1.59,.61-.96,0-1.63-.48-1.81-1.27h4.78c.01-.15,.04-.35,.04-.49,0-2.03-1.43-3.28-3.29-3.28Zm-1.55,2.7c.13-.81,.73-1.32,1.56-1.32s1.42,.52,1.55,1.32h-3.11Z"/><path class="cls-1" d="M73.81,19.41c0-.33,.35-.59,1.17-.59,.58,0,1.2,.12,1.82,.47l.61-1.3c-.6-.35-1.56-.55-2.43-.55-1.84,0-2.92,.85-2.92,2.04,0,2.52,3.82,1.47,3.82,2.5,0,.35-.32,.58-1.16,.58-.78,0-1.63-.25-2.2-.61l-.61,1.32c.59,.39,1.67,.68,2.74,.68,1.89,0,2.98-.83,2.98-2.01,0-2.49-3.82-1.44-3.82-2.52Z"/><path class="cls-1" d="M81.33,17.44c-1.93,0-3.37,1.36-3.37,3.25s1.42,3.25,3.6,3.25c1.14,0,2.02-.35,2.61-1.02l-.97-1.06c-.43,.41-.92,.61-1.59,.61-.96,0-1.63-.48-1.81-1.27h4.78c.01-.15,.04-.35,.04-.49,0-2.03-1.43-3.28-3.29-3.28Zm-1.55,2.7c.13-.81,.73-1.32,1.56-1.32s1.42,.52,1.55,1.32h-3.11Z"/><path class="cls-1" d="M89.33,23.54l-.49-1.29c-.2,.15-.47,.24-.74,.24-.04,0-.07-.01-.11-.02-.08,0-.17-.02-.24-.04-.03-.01-.05-.03-.08-.05-.06-.03-.12-.06-.16-.11-.03-.04-.05-.09-.08-.14-.02-.04-.05-.07-.07-.12-.03-.1-.05-.22-.05-.35v-2.51h1.57v-.06h0v-1.41h0v-.24h-1.57v-1.3h-1.83v1.3h-2.06c.65,.38,1.16,.95,1.46,1.69h.6v2.55c0,.19,.01,.36,.04,.52,0,.05,.03,.1,.04,.15,.02,.11,.04,.21,.08,.31,.02,.06,.06,.12,.08,.17,.03,.07,.06,.15,.11,.21,.04,.06,.09,.11,.14,.17,.04,.05,.08,.1,.12,.15,.06,.06,.12,.1,.19,.15,.05,.03,.09,.07,.14,.1,.07,.04,.16,.08,.24,.12,.05,.02,.1,.05,.15,.06,.09,.03,.19,.05,.29,.08,.05,.01,.1,.03,.16,.04,.11,.02,.22,.03,.34,.03,.05,0,.09,.01,.13,.01h0s.07,0,.11,0c.56,0,1.12-.13,1.49-.4Z"/><path class="cls-1" d="M39.26,26.6c.96,0,1.82,.28,2.53,.97l.38-.39c-.72-.76-1.76-1.14-2.92-1.14-2.44,0-4.26,1.77-4.26,4.17s1.82,4.17,4.26,4.17c1.16,0,2.21-.39,2.92-1.15l-.38-.39c-.7,.69-1.56,.99-2.53,.99-2.1,0-3.69-1.55-3.69-3.62s1.59-3.62,3.69-3.62Z"/><path class="cls-1" d="M45.51,28.15c-1.76,0-3.07,1.29-3.07,3.11s1.3,3.11,3.07,3.11,3.06-1.29,3.06-3.11-1.3-3.11-3.06-3.11Zm0,5.7c-1.41,0-2.47-1.05-2.47-2.58s1.06-2.58,2.47-2.58,2.47,1.05,2.47,2.58-1.06,2.58-2.47,2.58Z"/><path class="cls-1" d="M54.1,28.2v3.54c0,1.36-.72,2.09-1.96,2.11-1.24-.02-1.96-.75-1.96-2.11v-3.54h-.59v3.58c0,1.55,.82,2.42,2.13,2.57,.01,0,.03,0,.04,0,.11,.01,.22,.02,.34,.02h.08c.12,0,.23,0,.34-.02,.01,0,.03,0,.04,0,1.31-.15,2.13-1.02,2.13-2.57v-3.58h-.59Z"/><path class="cls-1" d="M58.56,28.23h-.04c-.11-.02-.22-.02-.34-.02h-.08c-.12,0-.23,0-.34,.02h-.04c-1.31,.16-2.13,1.02-2.13,2.57v3.58h.59v-3.54c0-1.36,.72-2.09,1.96-2.11,1.24,.02,1.96,.75,1.96,2.11v3.54h.59v-3.58c0-1.55-.82-2.42-2.13-2.57Z"/><path class="cls-1" d="M64.69,28.68c.76,0,1.44,.29,1.89,.92l.43-.32c-.5-.75-1.35-1.13-2.33-1.13-1.8,0-3.1,1.28-3.1,3.11s1.3,3.11,3.1,3.11c.97,0,1.82-.39,2.33-1.13l-.43-.32c-.45,.62-1.13,.92-1.89,.92-1.44,0-2.5-1.03-2.5-2.58s1.06-2.58,2.5-2.58Z"/><rect class="cls-1" x="68.19" y="28.2" width=".59" height="6.13"/><path class="cls-1" d="M68.49,25.76c-.27,0-.48,.22-.48,.48s.21,.47,.48,.47,.48-.21,.48-.48-.21-.47-.48-.47Z"/><rect class="cls-1" x="70.67" y="25.62" width=".59" height="8.71"/><path class="cls-1" d="M10.45,31.63c.32,.33,.85,.8,.88,1.29-.08-5.11-5.72-4.9-9.75-7.62,.04,.12,.11,.46,.18,.68,.07,.23,.15,.46,.23,.68,.16,.42,.37,.82,.63,1.19,.76,1.05,1.96,1.43,3.22,1.72,1.75,.4,3.33,.73,4.61,2.06Z"/><path class="cls-1" d="M12.88,31.03C13.57,22.93,1.56,22.68,.25,15.46c-2.07,11.53,9.42,7.21,12.63,15.56Z"/><path class="cls-1" d="M13.58,26.89c.05-.22,.07-.37,.06-.6,0-.18-.05-.6-.07-.77-.08-.58-.18-.92-.36-1.48-.18-.57-.41-1.11-.69-1.64-.28-.52-.61-1.03-.97-1.51-.36-.49-.75-.96-1.16-1.41-.42-.46-.85-.91-1.29-1.35-.44-.44-.89-.88-1.34-1.31-.44-.43-.88-.87-1.32-1.32-.42-.44-.83-.89-1.22-1.35-.38-.46-.73-.93-1.05-1.43-.31-.49-.59-1-.81-1.53-.22-.54-.39-1.1-.5-1.67-.09-.52-.13-1.04-.12-1.57-6.83,8.71,8.29,12.09,10.83,18.93Z"/><path class="cls-1" d="M13.66,16.3c-1.88-2.71-4.19-5.24-5.54-8.26-.43-.95-.74-1.96-.83-3-.04-.51-.03-1.03,.04-1.54,.05-.34,.13-1.35,.41-1.57C-.95,8.75,13.29,16.48,14.78,23.55c1.89,7.77-3.23,15.54-10.03,7.24,.26,.48,.51,.93,.79,1.35,.26,.4,.54,.78,.85,1.15,.51,.6,1.09,1.15,1.76,1.56,1.06,.65,2.31,.91,3.53,.6,2.63-.66,4.34-3.29,5.09-5.67,.3-.94,.47-1.92,.51-2.9,.03-.96-.04-1.89-.19-2.81-.48-2.81-1.78-5.41-3.42-7.79Z"/><path class="cls-1" d="M23.71,8.24c.45,1.11,2.04,.49,1.75-.54-.4-1.17-1.42-.34-2.2,.04-.16,.04-.5,.03-.68,.04,.29,.33,.8,.65,1.13,.46Z"/><path class="cls-1" d="M72.66,17.44h-.67c-.96,0-1.71,.32-2.15,.93v-.92h-1.75v6.41h1.83v-2.98c0-1.13,.59-1.69,1.49-1.75,.11-.7,.54-1.29,1.24-1.67Z"/><path class="cls-1" d="M53.01,10.38c0-1.21,.67-1.76,1.68-1.76,.04,0,.08,0,.12,0v-1.65c-.83,.06-1.48,.37-1.88,.91v-.92h-1.75v6.41h1.83v-2.98Z"/><path class="cls-1" d="M56.06,11.19c0,1.5,.87,2.27,2.36,2.27,.4,0,.8-.07,1.39-.33v-1.53c-.66,.34-.9,.41-1.13,.41-.49,0-.79-.29-.79-.83v-2.55h1.92v-1.67h-1.92v-1.3h-1.83v1.3h-.69v1.66h.69v2.58Z"/><path class="cls-1" d="M29.7,27.72c-.65-2.34-1.78-4.53-3.08-6.58-.62-.98-1.28-1.94-1.94-2.9-.31-.45-.64-.89-.93-1.36-.25-.39-.61-.84-.81-1.21,1.25,3.99,3.48,7.75,4.43,11.9,.62,2.68,.61,5.84-1.39,7.91,.97-.26,1.84-.26,2.66-.89,1.97-1.53,1.63-4.76,1.08-6.79l-.02-.08Z"/></svg>